<svg xmlns="http://www.w3.org/2000/svg" viewBox="0 0 900 360" role="img" aria-labelledby="title desc">
  <title id="title">Dead bug alterno</title>
  <desc id="desc">Tres vistas desde arriba muestran la posición central y la extensión alterna de brazo y pierna contrarios.</desc>
  <style>.panel{fill:#fff;stroke:#d9dfd7;stroke-width:2}.body{fill:none;stroke:#173b36;stroke-width:8;stroke-linecap:round;stroke-linejoin:round}.head{fill:#b9d8cd;stroke:#173b36;stroke-width:4}.core{fill:#f3aa68;stroke:#173b36;stroke-width:3}.move{fill:none;stroke:#e46d51;stroke-width:5;stroke-linecap:round}.label{fill:#173b36;font:700 16px sans-serif}</style>
  <rect width="900" height="360" rx="28" fill="#f6f4ed"/>
  <g data-step="1" transform="translate(24 38)"><rect class="panel" width="268" height="282" rx="20"/><text class="label" x="18" y="34">1 · Centro estable</text><circle class="head" cx="134" cy="72" r="19"/><path class="body" d="M134 94v90M134 112 84 76M134 112l50-36M134 184l-47 35 24 28M134 184l47 35-24 28"/><ellipse class="core" cx="134" cy="157" rx="19" ry="28"/></g>
  <g data-step="2" transform="translate(316 38)"><rect class="panel" width="268" height="282" rx="20"/><text class="label" x="18" y="34">2 · Contrarios lejos</text><circle class="head" cx="134" cy="72" r="19"/><path class="body" d="M134 94v90M134 112 57 59M134 112l50-36M134 184l-47 35 24 28M134 184l77 53"/><ellipse class="core" cx="134" cy="157" rx="19" ry="28"/><path class="move" d="M73 108 44 84M188 195l35 24"/><path fill="#e46d51" d="m36 77 9 20 13-16zM232 226l-11-19-12 17z"/></g>
  <g data-step="3" transform="translate(608 38)"><rect class="panel" width="268" height="282" rx="20"/><text class="label" x="18" y="34">3 · Cambia de lado</text><circle class="head" cx="134" cy="72" r="19"/><path class="body" d="M134 94v90M134 112l-50-36M134 112l77-53M134 184 57 237M134 184l47 35-24 28"/><ellipse class="core" cx="134" cy="157" rx="19" ry="28"/><path class="move" d="m194 108 29-24M80 195l-35 24"/><path fill="#e46d51" d="m232 77-9 20-13-16zM36 226l11-19 12 17z"/></g>
</svg>
