<svg xmlns="http://www.w3.org/2000/svg" viewBox="0 0 900 360" role="img" aria-labelledby="title desc">
  <title id="title">Extensión de rodilla sentada</title>
  <desc id="desc">Tres pasos laterales muestran el pie apoyado, la rodilla extendiéndose sin bloqueo y el descenso controlado.</desc>
  <style>.panel{fill:#fff;stroke:#d9dfd7;stroke-width:2}.body{fill:none;stroke:#173b36;stroke-width:8;stroke-linecap:round;stroke-linejoin:round}.head{fill:#f3aa68;stroke:#173b36;stroke-width:4}.chair{fill:#dce9e4;stroke:#54706b;stroke-width:5;stroke-linejoin:round}.knee{fill:#e46d51}.move{fill:none;stroke:#e46d51;stroke-width:5;stroke-linecap:round}.label{fill:#173b36;font:700 15px sans-serif}.ground{stroke:#9fb1ac;stroke-width:3}</style>
  <rect width="900" height="360" rx="28" fill="#f6f4ed"/>
  <g data-step="1" transform="translate(24 38)"><rect class="panel" width="268" height="282" rx="20"/><text class="label" x="18" y="34">1 · Ambos pies</text><line class="ground" x1="28" y1="242" x2="240" y2="242"/><path class="chair" d="M72 153v86M72 190h73v49M72 190v-60"/><circle class="head" cx="131" cy="74" r="21"/><path class="body" d="M131 97v82M131 124l-39 40M131 124l42 37M131 179l53 14 2 45M131 179l25 59"/></g>
  <g data-step="2" transform="translate(316 38)"><rect class="panel" width="268" height="282" rx="20"/><text class="label" x="18" y="34">2 · Extiende suave</text><line class="ground" x1="28" y1="242" x2="240" y2="242"/><path class="chair" d="M72 153v86M72 190h73v49M72 190v-60"/><circle class="head" cx="131" cy="74" r="21"/><path class="body" d="M131 97v82M131 124l-39 40M131 124l42 37M131 179l51 14 50-2M131 179l25 59"/><circle class="knee" cx="182" cy="193" r="8"/><path class="move" d="M187 224c21-5 36-14 43-24"/><path fill="#e46d51" d="m236 192-19 7 15 14z"/></g>
  <g data-step="3" transform="translate(608 38)"><rect class="panel" width="268" height="282" rx="20"/><text class="label" x="18" y="34">3 · Baja con control</text><line class="ground" x1="28" y1="242" x2="240" y2="242"/><path class="chair" d="M72 153v86M72 190h73v49M72 190v-60"/><circle class="head" cx="131" cy="74" r="21"/><path class="body" d="M131 97v82M131 124l-39 40M131 124l42 37M131 179l53 14 2 45M131 179l25 59"/><path class="move" d="M224 194c4 19-5 34-25 43"/><path fill="#e46d51" d="m190 241 20 1-8-18z"/></g>
</svg>
